<svg width="512" height="512" viewBox="0 0 512 512" fill="none" xmlns="http://www.w3.org/2000/svg">
<rect width="512" height="512" rx="32" fill="#FEE8C3"/>
<g filter="url(#filter0_d_2_59)">
<path d="M73.8106 88.1915C88.246 88.1915 111.144 119.181 109.65 131.168C108.157 143.155 154.354 88.1915 167.344 88.1915C180.334 88.1915 167.344 247.403 167.344 247.403C202.612 238.552 224.636 247.403 227.543 287H255V77.2258C227.543 77.2259 202.612 30.7759 202.612 30.7759C202.612 30.7759 156.441 26.7802 146.061 30.7759C135.682 34.7716 59.3752 88.1915 73.8106 88.1915Z" fill="#BFEFD9"/>
<path d="M73.8106 88.1915C88.246 88.1915 111.144 119.181 109.65 131.168C108.157 143.155 154.354 88.1915 167.344 88.1915C180.334 88.1915 167.344 247.403 167.344 247.403C202.612 238.552 224.636 247.403 227.543 287H255V77.2258C227.543 77.2259 202.612 30.7759 202.612 30.7759C202.612 30.7759 156.441 26.7802 146.061 30.7759C135.682 34.7716 59.3752 88.1915 73.8106 88.1915Z" stroke="white" stroke-width="3"/>
</g>
<g filter="url(#filter1_d_2_59)">
<path d="M437.179 88.1915C422.665 88.1915 399.642 119.181 401.144 131.168C402.645 143.155 356.196 88.1915 343.135 88.1915C330.074 88.1915 343.135 247.403 343.135 247.403C307.674 238.552 285.53 247.403 282.607 287H255V77.2258C282.607 77.2259 307.674 30.7759 307.674 30.7759C307.674 30.7759 354.098 26.7802 364.534 30.7759C374.97 34.7716 451.694 88.1915 437.179 88.1915Z" fill="#BFEFD9"/>
<path d="M437.179 88.1915C422.665 88.1915 399.642 119.181 401.144 131.168C402.645 143.155 356.196 88.1915 343.135 88.1915C330.074 88.1915 343.135 247.403 343.135 247.403C307.674 238.552 285.53 247.403 282.607 287H255V77.2258C282.607 77.2259 307.674 30.7759 307.674 30.7759C307.674 30.7759 354.098 26.7802 364.534 30.7759C374.97 34.7716 451.694 88.1915 437.179 88.1915Z" stroke="white" stroke-width="3"/>
</g>
<rect x="242" y="78.5" width="25" height="207" fill="#BFEFD9"/>
<path d="M255.816 200.969C270.912 191.165 286.683 176.423 295.524 159.703C299.378 152.415 301.729 148.234 301.524 135.969C301.319 123.703 295.729 115 277.524 115C259.319 115 255.816 135.969 255.816 135.969C255.816 135.969 249.524 115 231.764 115C214.004 115 208.302 127.576 208.024 135.969C207.836 141.665 208.685 153.608 212.729 160.969C221.421 176.788 241.001 189.534 255.816 200.969Z" fill="#DC8082"/>
<line x1="248" y1="287" x2="260" y2="287" stroke="white" stroke-width="3"/>
<g filter="url(#filter2_d_2_59)">
<path d="M149.787 347.448C146.501 347.448 143.557 346.915 140.955 345.848C138.352 344.781 136.261 343.203 134.683 341.112C133.147 339.021 132.336 336.504 132.251 333.56H143.899C144.069 335.224 144.645 336.504 145.627 337.4C146.608 338.253 147.888 338.68 149.467 338.68C151.088 338.68 152.368 338.317 153.307 337.592C154.245 336.824 154.715 335.779 154.715 334.456C154.715 333.347 154.331 332.429 153.563 331.704C152.837 330.979 151.92 330.381 150.811 329.912C149.744 329.443 148.208 328.909 146.203 328.312C143.301 327.416 140.933 326.52 139.099 325.624C137.264 324.728 135.685 323.405 134.363 321.656C133.04 319.907 132.379 317.624 132.379 314.808C132.379 310.627 133.893 307.363 136.923 305.016C139.952 302.627 143.899 301.432 148.763 301.432C153.712 301.432 157.701 302.627 160.731 305.016C163.76 307.363 165.381 310.648 165.595 314.872H153.755C153.669 313.421 153.136 312.291 152.155 311.48C151.173 310.627 149.915 310.2 148.378 310.2C147.056 310.2 145.989 310.563 145.179 311.288C144.368 311.971 143.963 312.973 143.963 314.296C143.963 315.747 144.645 316.877 146.01 317.688C147.376 318.499 149.509 319.373 152.411 320.312C155.312 321.293 157.659 322.232 159.451 323.128C161.285 324.024 162.864 325.325 164.187 327.032C165.509 328.739 166.171 330.936 166.171 333.624C166.171 336.184 165.509 338.509 164.187 340.6C162.907 342.691 161.029 344.355 158.555 345.592C156.08 346.829 153.157 347.448 149.787 347.448ZM206.569 328.568C206.569 329.592 206.506 330.659 206.378 331.768H181.61C181.78 333.987 182.484 335.693 183.722 336.888C185.002 338.04 186.559 338.616 188.394 338.616C191.124 338.616 193.023 337.464 194.09 335.16H205.738C205.14 337.507 204.052 339.619 202.474 341.496C200.938 343.373 198.996 344.845 196.65 345.912C194.303 346.979 191.679 347.512 188.778 347.512C185.279 347.512 182.164 346.765 179.434 345.272C176.703 343.779 174.57 341.645 173.034 338.872C171.498 336.099 170.73 332.856 170.73 329.144C170.73 325.432 171.476 322.189 172.97 319.416C174.506 316.643 176.639 314.509 179.37 313.016C182.1 311.523 185.236 310.776 188.778 310.776C192.234 310.776 195.306 311.501 197.994 312.952C200.682 314.403 202.772 316.472 204.266 319.16C205.802 321.848 206.569 324.984 206.569 328.568ZM195.37 325.688C195.37 323.811 194.73 322.317 193.45 321.208C192.17 320.099 190.57 319.544 188.65 319.544C186.815 319.544 185.258 320.077 183.978 321.144C182.74 322.211 181.972 323.725 181.674 325.688H195.37ZM210.167 329.144C210.167 325.432 210.914 322.189 212.407 319.416C213.943 316.643 216.055 314.509 218.743 313.016C221.474 311.523 224.588 310.776 228.087 310.776C232.567 310.776 236.3 311.949 239.287 314.296C242.316 316.643 244.3 319.949 245.239 324.216H233.591C232.61 321.485 230.711 320.12 227.895 320.12C225.89 320.12 224.29 320.909 223.095 322.488C221.9 324.024 221.303 326.243 221.303 329.144C221.303 332.045 221.9 334.285 223.095 335.864C224.29 337.4 225.89 338.168 227.895 338.168C230.711 338.168 232.61 336.803 233.591 334.072H245.239C244.3 338.253 242.316 341.539 239.287 343.928C236.258 346.317 232.524 347.512 228.087 347.512C224.588 347.512 221.474 346.765 218.743 345.272C216.055 343.779 213.943 341.645 212.407 338.872C210.914 336.099 210.167 332.856 210.167 329.144ZM267.349 347.512C263.85 347.512 260.693 346.765 257.877 345.272C255.104 343.779 252.906 341.645 251.285 338.872C249.706 336.099 248.917 332.856 248.917 329.144C248.917 325.475 249.728 322.253 251.349 319.48C252.97 316.664 255.189 314.509 258.005 313.016C260.821 311.523 263.978 310.776 267.477 310.776C270.976 310.776 274.133 311.523 276.949 313.016C279.765 314.509 281.984 316.664 283.605 319.48C285.226 322.253 286.037 325.475 286.037 329.144C286.037 332.813 285.205 336.056 283.541 338.872C281.92 341.645 279.68 343.779 276.821 345.272C274.005 346.765 270.848 347.512 267.349 347.512ZM267.349 338.04C269.44 338.04 271.21 337.272 272.661 335.736C274.154 334.2 274.901 332.003 274.901 329.144C274.901 326.285 274.176 324.088 272.725 322.552C271.317 321.016 269.568 320.248 267.477 320.248C265.344 320.248 263.573 321.016 262.165 322.552C260.757 324.045 260.053 326.243 260.053 329.144C260.053 332.003 260.736 334.2 262.101 335.736C263.509 337.272 265.258 338.04 267.349 338.04ZM313.603 310.904C317.784 310.904 321.112 312.269 323.587 315C326.104 317.688 327.363 321.4 327.363 326.136V347H316.483V327.608C316.483 325.219 315.864 323.363 314.627 322.04C313.39 320.717 311.726 320.056 309.635 320.056C307.544 320.056 305.88 320.717 304.643 322.04C303.406 323.363 302.787 325.219 302.787 327.608V347H291.843V311.288H302.787V316.024C303.896 314.445 305.39 313.208 307.267 312.312C309.144 311.373 311.256 310.904 313.603 310.904ZM332.792 329.08C332.792 325.411 333.475 322.189 334.84 319.416C336.248 316.643 338.147 314.509 340.536 313.016C342.925 311.523 345.592 310.776 348.536 310.776C350.883 310.776 353.016 311.267 354.936 312.248C356.899 313.229 358.435 314.552 359.544 316.216V299.64H370.488V347H359.544V341.88C358.52 343.587 357.048 344.952 355.128 345.976C353.251 347 351.053 347.512 348.536 347.512C345.592 347.512 342.925 346.765 340.536 345.272C338.147 343.736 336.248 341.581 334.84 338.808C333.475 335.992 332.792 332.749 332.792 329.08ZM359.544 329.144C359.544 326.413 358.776 324.259 357.24 322.68C355.747 321.101 353.912 320.312 351.736 320.312C349.56 320.312 347.704 321.101 346.168 322.68C344.675 324.216 343.928 326.349 343.928 329.08C343.928 331.811 344.675 333.987 346.168 335.608C347.704 337.187 349.56 337.976 351.736 337.976C353.912 337.976 355.747 337.187 357.24 335.608C358.776 334.029 359.544 331.875 359.544 329.144ZM154.638 393.04C154.638 390.32 155.251 387.88 156.478 385.72C157.705 383.533 159.371 381.827 161.478 380.6C163.611 379.373 165.971 378.76 168.558 378.76C171.598 378.76 174.251 379.493 176.518 380.96C178.785 382.427 180.438 384.507 181.478 387.2H177.118C176.345 385.52 175.225 384.227 173.758 383.32C172.318 382.413 170.585 381.96 168.558 381.96C166.611 381.96 164.865 382.413 163.318 383.32C161.771 384.227 160.558 385.52 159.678 387.2C158.798 388.853 158.358 390.8 158.358 393.04C158.358 395.253 158.798 397.2 159.678 398.88C160.558 400.533 161.771 401.813 163.318 402.72C164.865 403.627 166.611 404.08 168.558 404.08C170.585 404.08 172.318 403.64 173.758 402.76C175.225 401.853 176.345 400.56 177.118 398.88H181.478C180.438 401.547 178.785 403.613 176.518 405.08C174.251 406.52 171.598 407.24 168.558 407.24C165.971 407.24 163.611 406.64 161.478 405.44C159.371 404.213 157.705 402.52 156.478 400.36C155.251 398.2 154.638 395.76 154.638 393.04ZM197.776 384.68C199.43 384.68 200.923 385.04 202.256 385.76C203.59 386.453 204.63 387.507 205.376 388.92C206.15 390.333 206.536 392.053 206.536 394.08V407H202.936V394.6C202.936 392.413 202.39 390.747 201.296 389.6C200.203 388.427 198.71 387.84 196.816 387.84C194.896 387.84 193.363 388.44 192.216 389.64C191.096 390.84 190.536 392.587 190.536 394.88V407H186.896V377.4H190.536V388.2C191.256 387.08 192.243 386.213 193.496 385.6C194.776 384.987 196.203 384.68 197.776 384.68ZM214.362 381.52C213.669 381.52 213.082 381.28 212.602 380.8C212.122 380.32 211.882 379.733 211.882 379.04C211.882 378.347 212.122 377.76 212.602 377.28C213.082 376.8 213.669 376.56 214.362 376.56C215.029 376.56 215.589 376.8 216.042 377.28C216.522 377.76 216.762 378.347 216.762 379.04C216.762 379.733 216.522 380.32 216.042 380.8C215.589 381.28 215.029 381.52 214.362 381.52ZM216.122 385.08V407H212.482V385.08H216.122ZM225.966 377.4V407H222.326V377.4H225.966ZM230.81 395.96C230.81 393.72 231.263 391.76 232.17 390.08C233.077 388.373 234.317 387.053 235.89 386.12C237.49 385.187 239.277 384.72 241.25 384.72C242.957 384.72 244.543 385.12 246.01 385.92C247.477 386.693 248.597 387.72 249.37 389V377.4H253.05V407H249.37V402.88C248.65 404.187 247.583 405.267 246.17 406.12C244.757 406.947 243.103 407.36 241.21 407.36C239.263 407.36 237.49 406.88 235.89 405.92C234.317 404.96 233.077 403.613 232.17 401.88C231.263 400.147 230.81 398.173 230.81 395.96ZM249.37 396C249.37 394.347 249.037 392.907 248.37 391.68C247.703 390.453 246.797 389.52 245.65 388.88C244.53 388.213 243.29 387.88 241.93 387.88C240.57 387.88 239.33 388.2 238.21 388.84C237.09 389.48 236.197 390.413 235.53 391.64C234.863 392.867 234.53 394.307 234.53 395.96C234.53 397.64 234.863 399.107 235.53 400.36C236.197 401.587 237.09 402.533 238.21 403.2C239.33 403.84 240.57 404.16 241.93 404.16C243.29 404.16 244.53 403.84 245.65 403.2C246.797 402.533 247.703 401.587 248.37 400.36C249.037 399.107 249.37 397.653 249.37 396ZM262.841 388.64C263.481 387.387 264.388 386.413 265.561 385.72C266.761 385.027 268.214 384.68 269.921 384.68V388.44H268.961C264.881 388.44 262.841 390.653 262.841 395.08V407H259.201V385.08H262.841V388.64ZM294.123 395.2C294.123 395.893 294.083 396.627 294.003 397.4H276.483C276.616 399.56 277.35 401.253 278.683 402.48C280.043 403.68 281.683 404.28 283.603 404.28C285.176 404.28 286.483 403.92 287.523 403.2C288.59 402.453 289.336 401.467 289.763 400.24H293.683C293.096 402.347 291.923 404.067 290.163 405.4C288.403 406.707 286.216 407.36 283.603 407.36C281.523 407.36 279.656 406.893 278.003 405.96C276.376 405.027 275.096 403.707 274.163 402C273.23 400.267 272.763 398.267 272.763 396C272.763 393.733 273.216 391.747 274.123 390.04C275.03 388.333 276.296 387.027 277.923 386.12C279.576 385.187 281.47 384.72 283.603 384.72C285.683 384.72 287.523 385.173 289.123 386.08C290.723 386.987 291.95 388.24 292.803 389.84C293.683 391.413 294.123 393.2 294.123 395.2ZM290.363 394.44C290.363 393.053 290.056 391.867 289.443 390.88C288.83 389.867 287.99 389.107 286.923 388.6C285.883 388.067 284.723 387.8 283.443 387.8C281.603 387.8 280.03 388.387 278.723 389.56C277.443 390.733 276.71 392.36 276.523 394.44H290.363ZM309.608 384.68C312.274 384.68 314.434 385.493 316.088 387.12C317.741 388.72 318.568 391.04 318.568 394.08V407H314.968V394.6C314.968 392.413 314.421 390.747 313.328 389.6C312.234 388.427 310.741 387.84 308.848 387.84C306.928 387.84 305.394 388.44 304.248 389.64C303.128 390.84 302.568 392.587 302.568 394.88V407H298.928V385.08H302.568V388.2C303.288 387.08 304.261 386.213 305.488 385.6C306.741 384.987 308.114 384.68 309.608 384.68ZM325.074 379.12H329.114L325.274 388.2H322.714L325.074 379.12ZM341.024 407.36C339.344 407.36 337.837 407.08 336.504 406.52C335.17 405.933 334.117 405.133 333.344 404.12C332.57 403.08 332.144 401.893 332.064 400.56H335.824C335.93 401.653 336.437 402.547 337.344 403.24C338.277 403.933 339.49 404.28 340.984 404.28C342.37 404.28 343.464 403.973 344.264 403.36C345.064 402.747 345.464 401.973 345.464 401.04C345.464 400.08 345.037 399.373 344.184 398.92C343.33 398.44 342.01 397.973 340.224 397.52C338.597 397.093 337.264 396.667 336.224 396.24C335.21 395.787 334.33 395.133 333.584 394.28C332.864 393.4 332.504 392.253 332.504 390.84C332.504 389.72 332.837 388.693 333.504 387.76C334.17 386.827 335.117 386.093 336.344 385.56C337.57 385 338.97 384.72 340.544 384.72C342.97 384.72 344.93 385.333 346.424 386.56C347.917 387.787 348.717 389.467 348.824 391.6H345.184C345.104 390.453 344.637 389.533 343.784 388.84C342.957 388.147 341.837 387.8 340.424 387.8C339.117 387.8 338.077 388.08 337.304 388.64C336.53 389.2 336.144 389.933 336.144 390.84C336.144 391.56 336.37 392.16 336.824 392.64C337.304 393.093 337.89 393.467 338.584 393.76C339.304 394.027 340.29 394.333 341.544 394.68C343.117 395.107 344.397 395.533 345.384 395.96C346.37 396.36 347.21 396.973 347.904 397.8C348.624 398.627 348.997 399.707 349.024 401.04C349.024 402.24 348.69 403.32 348.024 404.28C347.357 405.24 346.41 406 345.184 406.56C343.984 407.093 342.597 407.36 341.024 407.36ZM93.8372 456C93.8372 453.733 94.2905 451.76 95.1972 450.08C96.1039 448.373 97.3572 447.053 98.9572 446.12C100.584 445.187 102.437 444.72 104.517 444.72C107.211 444.72 109.424 445.373 111.157 446.68C112.917 447.987 114.077 449.8 114.637 452.12H110.717C110.344 450.787 109.611 449.733 108.517 448.96C107.451 448.187 106.117 447.8 104.517 447.8C102.437 447.8 100.757 448.52 99.4772 449.96C98.1972 451.373 97.5572 453.387 97.5572 456C97.5572 458.64 98.1972 460.68 99.4772 462.12C100.757 463.56 102.437 464.28 104.517 464.28C106.117 464.28 107.451 463.907 108.517 463.16C109.584 462.413 110.317 461.347 110.717 459.96H114.637C114.051 462.2 112.877 464 111.117 465.36C109.357 466.693 107.157 467.36 104.517 467.36C102.437 467.36 100.584 466.893 98.9572 465.96C97.3572 465.027 96.1039 463.707 95.1972 462C94.2905 460.293 93.8372 458.293 93.8372 456ZM123.134 437.4V467H119.494V437.4H123.134ZM138.898 467.36C136.844 467.36 134.978 466.893 133.298 465.96C131.644 465.027 130.338 463.707 129.378 462C128.444 460.267 127.978 458.267 127.978 456C127.978 453.76 128.458 451.787 129.418 450.08C130.404 448.347 131.738 447.027 133.418 446.12C135.098 445.187 136.978 444.72 139.058 444.72C141.138 444.72 143.018 445.187 144.698 446.12C146.378 447.027 147.698 448.333 148.658 450.04C149.644 451.747 150.138 453.733 150.138 456C150.138 458.267 149.631 460.267 148.618 462C147.631 463.707 146.284 465.027 144.578 465.96C142.871 466.893 140.978 467.36 138.898 467.36ZM138.898 464.16C140.204 464.16 141.431 463.853 142.578 463.24C143.724 462.627 144.644 461.707 145.338 460.48C146.058 459.253 146.418 457.76 146.418 456C146.418 454.24 146.071 452.747 145.378 451.52C144.684 450.293 143.778 449.387 142.658 448.8C141.538 448.187 140.324 447.88 139.018 447.88C137.684 447.88 136.458 448.187 135.338 448.8C134.244 449.387 133.364 450.293 132.698 451.52C132.031 452.747 131.698 454.24 131.698 456C131.698 457.787 132.018 459.293 132.658 460.52C133.324 461.747 134.204 462.667 135.298 463.28C136.391 463.867 137.591 464.16 138.898 464.16ZM159.364 448.08V461C159.364 462.067 159.59 462.827 160.044 463.28C160.497 463.707 161.284 463.92 162.404 463.92H165.084V467H161.804C159.777 467 158.257 466.533 157.244 465.6C156.23 464.667 155.724 463.133 155.724 461V448.08H152.884V445.08H155.724V439.56H159.364V445.08H165.084V448.08H159.364ZM180.374 444.68C182.027 444.68 183.521 445.04 184.854 445.76C186.187 446.453 187.227 447.507 187.974 448.92C188.747 450.333 189.134 452.053 189.134 454.08V467H185.534V454.6C185.534 452.413 184.987 450.747 183.894 449.6C182.801 448.427 181.307 447.84 179.414 447.84C177.494 447.84 175.961 448.44 174.814 449.64C173.694 450.84 173.134 452.587 173.134 454.88V467H169.494V437.4H173.134V448.2C173.854 447.08 174.841 446.213 176.094 445.6C177.374 444.987 178.801 444.68 180.374 444.68ZM196.96 441.52C196.267 441.52 195.68 441.28 195.2 440.8C194.72 440.32 194.48 439.733 194.48 439.04C194.48 438.347 194.72 437.76 195.2 437.28C195.68 436.8 196.267 436.56 196.96 436.56C197.627 436.56 198.187 436.8 198.64 437.28C199.12 437.76 199.36 438.347 199.36 439.04C199.36 439.733 199.12 440.32 198.64 440.8C198.187 441.28 197.627 441.52 196.96 441.52ZM198.72 445.08V467H195.08V445.08H198.72ZM215.604 444.68C218.27 444.68 220.43 445.493 222.084 447.12C223.737 448.72 224.564 451.04 224.564 454.08V467H220.964V454.6C220.964 452.413 220.417 450.747 219.324 449.6C218.23 448.427 216.737 447.84 214.844 447.84C212.924 447.84 211.39 448.44 210.244 449.64C209.124 450.84 208.564 452.587 208.564 454.88V467H204.924V445.08H208.564V448.2C209.284 447.08 210.257 446.213 211.484 445.6C212.737 444.987 214.11 444.68 215.604 444.68ZM239.55 444.72C241.443 444.72 243.096 445.133 244.51 445.96C245.95 446.787 247.016 447.827 247.71 449.08V445.08H251.39V467.48C251.39 469.48 250.963 471.253 250.11 472.8C249.256 474.373 248.03 475.6 246.43 476.48C244.856 477.36 243.016 477.8 240.91 477.8C238.03 477.8 235.63 477.12 233.71 475.76C231.79 474.4 230.656 472.547 230.31 470.2H233.91C234.31 471.533 235.136 472.6 236.39 473.4C237.643 474.227 239.15 474.64 240.91 474.64C242.91 474.64 244.536 474.013 245.79 472.76C247.07 471.507 247.71 469.747 247.71 467.48V462.88C246.99 464.16 245.923 465.227 244.51 466.08C243.096 466.933 241.443 467.36 239.55 467.36C237.603 467.36 235.83 466.88 234.23 465.92C232.656 464.96 231.416 463.613 230.51 461.88C229.603 460.147 229.15 458.173 229.15 455.96C229.15 453.72 229.603 451.76 230.51 450.08C231.416 448.373 232.656 447.053 234.23 446.12C235.83 445.187 237.603 444.72 239.55 444.72ZM247.71 456C247.71 454.347 247.376 452.907 246.71 451.68C246.043 450.453 245.136 449.52 243.99 448.88C242.87 448.213 241.63 447.88 240.27 447.88C238.91 447.88 237.67 448.2 236.55 448.84C235.43 449.48 234.536 450.413 233.87 451.64C233.203 452.867 232.87 454.307 232.87 455.96C232.87 457.64 233.203 459.107 233.87 460.36C234.536 461.587 235.43 462.533 236.55 463.2C237.67 463.84 238.91 464.16 240.27 464.16C241.63 464.16 242.87 463.84 243.99 463.2C245.136 462.533 246.043 461.587 246.71 460.36C247.376 459.107 247.71 457.653 247.71 456ZM289.605 467L285.965 463.32C284.605 464.733 283.152 465.787 281.605 466.48C280.058 467.147 278.312 467.48 276.365 467.48C274.445 467.48 272.738 467.133 271.245 466.44C269.778 465.747 268.632 464.76 267.805 463.48C267.005 462.2 266.605 460.707 266.605 459C266.605 457.053 267.152 455.347 268.245 453.88C269.365 452.387 271.005 451.213 273.165 450.36C272.312 449.347 271.698 448.413 271.325 447.56C270.952 446.707 270.765 445.773 270.765 444.76C270.765 443.587 271.058 442.533 271.645 441.6C272.258 440.64 273.125 439.893 274.245 439.36C275.365 438.827 276.658 438.56 278.125 438.56C279.565 438.56 280.818 438.84 281.885 439.4C282.952 439.96 283.752 440.747 284.285 441.76C284.818 442.747 285.058 443.853 285.005 445.08H281.365C281.392 443.987 281.085 443.133 280.445 442.52C279.805 441.88 278.978 441.56 277.965 441.56C276.898 441.56 276.032 441.867 275.365 442.48C274.725 443.067 274.405 443.827 274.405 444.76C274.405 445.56 274.618 446.333 275.045 447.08C275.498 447.827 276.245 448.747 277.285 449.84L285.605 458.2L286.325 457.08L289.045 452.52H292.965L289.685 458.2C289.232 459 288.698 459.84 288.085 460.72L294.365 467H289.605ZM276.365 464.36C277.805 464.36 279.098 464.08 280.245 463.52C281.418 462.96 282.525 462.093 283.565 460.92L275.365 452.68C271.952 453.987 270.245 456.053 270.245 458.88C270.245 460.453 270.805 461.76 271.925 462.8C273.072 463.84 274.552 464.36 276.365 464.36ZM334.799 444.68C336.506 444.68 338.026 445.04 339.359 445.76C340.693 446.453 341.746 447.507 342.519 448.92C343.293 450.333 343.679 452.053 343.679 454.08V467H340.079V454.6C340.079 452.413 339.533 450.747 338.439 449.6C337.373 448.427 335.919 447.84 334.079 447.84C332.186 447.84 330.679 448.453 329.559 449.68C328.439 450.88 327.879 452.627 327.879 454.92V467H324.279V454.6C324.279 452.413 323.733 450.747 322.639 449.6C321.573 448.427 320.119 447.84 318.279 447.84C316.386 447.84 314.879 448.453 313.759 449.68C312.639 450.88 312.079 452.627 312.079 454.92V467H308.439V445.08H312.079V448.24C312.799 447.093 313.759 446.213 314.959 445.6C316.186 444.987 317.533 444.68 318.999 444.68C320.839 444.68 322.466 445.093 323.879 445.92C325.293 446.747 326.346 447.96 327.039 449.56C327.653 448.013 328.666 446.813 330.079 445.96C331.493 445.107 333.066 444.68 334.799 444.68ZM359.21 467.36C357.157 467.36 355.29 466.893 353.61 465.96C351.957 465.027 350.65 463.707 349.69 462C348.757 460.267 348.29 458.267 348.29 456C348.29 453.76 348.77 451.787 349.73 450.08C350.717 448.347 352.05 447.027 353.73 446.12C355.41 445.187 357.29 444.72 359.37 444.72C361.45 444.72 363.33 445.187 365.01 446.12C366.69 447.027 368.01 448.333 368.97 450.04C369.957 451.747 370.45 453.733 370.45 456C370.45 458.267 369.944 460.267 368.93 462C367.944 463.707 366.597 465.027 364.89 465.96C363.184 466.893 361.29 467.36 359.21 467.36ZM359.21 464.16C360.517 464.16 361.744 463.853 362.89 463.24C364.037 462.627 364.957 461.707 365.65 460.48C366.37 459.253 366.73 457.76 366.73 456C366.73 454.24 366.384 452.747 365.69 451.52C364.997 450.293 364.09 449.387 362.97 448.8C361.85 448.187 360.637 447.88 359.33 447.88C357.997 447.88 356.77 448.187 355.65 448.8C354.557 449.387 353.677 450.293 353.01 451.52C352.344 452.747 352.01 454.24 352.01 456C352.01 457.787 352.33 459.293 352.97 460.52C353.637 461.747 354.517 462.667 355.61 463.28C356.704 463.867 357.904 464.16 359.21 464.16ZM378.876 448.64C379.516 447.387 380.423 446.413 381.596 445.72C382.796 445.027 384.25 444.68 385.956 444.68V448.44H384.996C380.916 448.44 378.876 450.653 378.876 455.08V467H375.236V445.08H378.876V448.64ZM410.158 455.2C410.158 455.893 410.118 456.627 410.038 457.4H392.518C392.651 459.56 393.385 461.253 394.718 462.48C396.078 463.68 397.718 464.28 399.638 464.28C401.211 464.28 402.518 463.92 403.558 463.2C404.625 462.453 405.371 461.467 405.798 460.24H409.718C409.131 462.347 407.958 464.067 406.198 465.4C404.438 466.707 402.251 467.36 399.638 467.36C397.558 467.36 395.691 466.893 394.038 465.96C392.411 465.027 391.131 463.707 390.198 462C389.265 460.267 388.798 458.267 388.798 456C388.798 453.733 389.251 451.747 390.158 450.04C391.065 448.333 392.331 447.027 393.958 446.12C395.611 445.187 397.505 444.72 399.638 444.72C401.718 444.72 403.558 445.173 405.158 446.08C406.758 446.987 407.985 448.24 408.838 449.84C409.718 451.413 410.158 453.2 410.158 455.2ZM406.398 454.44C406.398 453.053 406.091 451.867 405.478 450.88C404.865 449.867 404.025 449.107 402.958 448.6C401.918 448.067 400.758 447.8 399.478 447.8C397.638 447.8 396.065 448.387 394.758 449.56C393.478 450.733 392.745 452.36 392.558 454.44H406.398Z" fill="white"/>
</g>
<defs>
<filter id="filter0_d_2_59" x="66.4988" y="27.5" width="194.001" height="269" filterUnits="userSpaceOnUse" color-interpolation-filters="sRGB">
<feFlood flood-opacity="0" result="BackgroundImageFix"/>
<feColorMatrix in="SourceAlpha" type="matrix" values="0 0 0 0 0 0 0 0 0 0 0 0 0 0 0 0 0 0 127 0" result="hardAlpha"/>
<feOffset dy="4"/>
<feGaussianBlur stdDeviation="2"/>
<feComposite in2="hardAlpha" operator="out"/>
<feColorMatrix type="matrix" values="0 0 0 0 0 0 0 0 0 0 0 0 0 0 0 0 0 0 0.25 0"/>
<feBlend mode="normal" in2="BackgroundImageFix" result="effect1_dropShadow_2_59"/>
<feBlend mode="normal" in="SourceGraphic" in2="effect1_dropShadow_2_59" result="shape"/>
</filter>
<filter id="filter1_d_2_59" x="249.5" y="27.5" width="195.001" height="269" filterUnits="userSpaceOnUse" color-interpolation-filters="sRGB">
<feFlood flood-opacity="0" result="BackgroundImageFix"/>
<feColorMatrix in="SourceAlpha" type="matrix" values="0 0 0 0 0 0 0 0 0 0 0 0 0 0 0 0 0 0 127 0" result="hardAlpha"/>
<feOffset dy="4"/>
<feGaussianBlur stdDeviation="2"/>
<feComposite in2="hardAlpha" operator="out"/>
<feColorMatrix type="matrix" values="0 0 0 0 0 0 0 0 0 0 0 0 0 0 0 0 0 0 0.25 0"/>
<feBlend mode="normal" in2="BackgroundImageFix" result="effect1_dropShadow_2_59"/>
<feBlend mode="normal" in="SourceGraphic" in2="effect1_dropShadow_2_59" result="shape"/>
</filter>
<filter id="filter2_d_2_59" x="89.8372" y="299.64" width="324.321" height="186.16" filterUnits="userSpaceOnUse" color-interpolation-filters="sRGB">
<feFlood flood-opacity="0" result="BackgroundImageFix"/>
<feColorMatrix in="SourceAlpha" type="matrix" values="0 0 0 0 0 0 0 0 0 0 0 0 0 0 0 0 0 0 127 0" result="hardAlpha"/>
<feOffset dy="4"/>
<feGaussianBlur stdDeviation="2"/>
<feComposite in2="hardAlpha" operator="out"/>
<feColorMatrix type="matrix" values="0 0 0 0 0 0 0 0 0 0 0 0 0 0 0 0 0 0 0.25 0"/>
<feBlend mode="normal" in2="BackgroundImageFix" result="effect1_dropShadow_2_59"/>
<feBlend mode="normal" in="SourceGraphic" in2="effect1_dropShadow_2_59" result="shape"/>
</filter>
</defs>
</svg>
